<svg width="109" height="125" viewBox="0 0 109 125" fill="none" xmlns="http://www.w3.org/2000/svg">
<path d="M54.1771 0.999915L54.8438 1.08325L55.6563 1.30721L56.5729 1.66658L57.5885 2.16137L58.4531 2.63012L59.2292 3.05721L59.8802 3.41658L60.1094 3.56242L60.349 3.72387L61.4167 4.30721L62.6667 4.97387L64.1094 5.73429L65.6042 6.52075L67.0417 7.28117L68.2708 7.93742L68.9063 8.29679L69.4427 8.58846L70.1354 8.9895L70.8438 9.40096L71.4844 9.77596L72.1771 10.177L73.1094 10.6822L74.0938 11.203L75 11.6562L75.8177 12.0572L76.5208 12.427L77.1094 12.7499L77.2396 12.8437L77.3594 12.9374L77.6406 13.1093L77.9896 13.3072L78.3594 13.4947L78.7604 13.7082L79.1771 13.9635L79.5208 14.1874L79.75 14.3749L79.9479 14.5364L80.1771 14.6666L80.4167 14.7499L80.6042 14.776L80.776 14.802L80.9375 14.8541L81.0677 14.9374L81.151 15.0155L81.2708 15.1614L82.0156 15.6041L82.9219 16.1093L83.974 16.6666L85.1615 17.2812L86.4531 17.9635L87.6927 18.5885L88.6146 19.0676L89.3594 19.4687L90.026 19.8176L90.5729 20.1197L90.6927 20.2291L90.8281 20.3228L91.2813 20.5885L91.8438 20.8957L92.4688 21.2447L93.1771 21.6145L94.0156 22.0572L94.8438 22.4947L95.5104 22.8437L96.0677 23.151L96.5729 23.427L96.9896 23.6822L97.1094 23.7864L97.2396 23.8957L98.0156 24.3489L98.9375 24.8541L99.9896 25.427L101.177 26.0676L102.484 26.7499L103.693 27.401L104.63 27.8957L105.401 28.3228L106.151 28.7603L106.776 29.1614L107.109 29.4166L107.349 29.7239L107.536 30.151L107.641 30.6562L107.682 31.2551L107.63 32.0572L107.443 32.5207L107.016 32.9218L106 33.5624L105.281 33.9739L104.51 34.3905L103.786 34.7603L103.271 34.9999L102.88 35.1874L102.536 35.3905L102.297 35.5624L102.24 35.6145L102.229 35.6822L102.203 35.776L102.109 35.8541L101.974 35.9114L101.828 35.9218L101.563 35.9895L100.854 36.3489L100.016 36.8176L99.0938 37.3645L98.1875 37.9218L97.375 38.3905L96.6823 38.7603L96.4948 38.8176L96.375 38.828L96.2552 38.8801L96.1615 38.9635L96.0938 39.0572L95.9896 39.177L95.5469 39.453L95 39.7603L94.3906 40.0937L93.5729 40.5103L92.401 41.1197L91.1198 41.828L89.8958 42.4947L88.6146 43.203L87.1354 43.9999L85.6927 44.7603L84.5365 45.3645L83.6042 45.8697L82.8438 46.3228L82.2969 46.7082L82.2708 46.7499V46.802L82.2969 46.8437L82.4844 46.9895L83.5469 47.5624L84.7865 48.2291L86.2135 48.9739L87.776 49.7864L89.401 50.6666L90.8698 51.4843L91.8802 52.0572L92.6563 52.5103L93.375 52.8801L93.974 53.177L94.2031 53.2291L94.3333 53.2447L94.4427 53.2968L94.5208 53.3749L94.5469 53.4687L94.5625 53.5364L94.6042 53.5885L94.8542 53.776L95.1875 53.9739L95.5729 54.177L96.1198 54.427L96.974 54.8801L97.9375 55.401L98.8698 55.9374L99.9063 56.5207L101.203 57.2291L102.521 57.9218L103.667 58.5103L104.682 59.0312L105.604 59.5364L106.359 59.9739L106.656 60.1874L106.844 60.3489L107.042 60.4843L107.24 60.5624L107.391 60.5885L107.453 60.6145L107.495 60.6822L107.589 61.0572L107.656 61.5468L107.682 62.151L107.641 62.8801L107.547 63.453L107.359 63.8958L107.109 64.2135L106.786 64.4687L106.24 64.7864L105.604 65.1197L104.948 65.427L104.323 65.7239L103.776 65.9895L103.323 66.2135L103.188 66.3228L103.068 66.4426L102.615 66.6978L102.057 66.9999L101.427 67.3072L100.802 67.6301L100.255 67.9218L99.7865 68.177L99.6667 68.2812L99.5625 68.3645L99.2708 68.5364L98.9375 68.7239L98.5469 68.9218L98.1771 69.1197L97.8281 69.3072L97.5365 69.4843L97.4271 69.5624L97.3073 69.6562L96.9375 69.8697L96.4948 70.1197L95.9896 70.3905L95.2708 70.776L94 71.453L92.5208 72.2708L91.0156 73.0937L89.4271 73.9635L87.6927 74.8958L86.0677 75.7499L84.8542 76.3749L83.8958 76.8697L83.0938 77.3228L82.4531 77.7343L82.3906 77.7864L82.375 77.8697L82.3906 77.9635L82.4531 78.0155L83.1875 78.4687L84.0938 78.9739L85.1771 79.5208L86.2552 80.0676L87.2031 80.5624L88 80.9739L88.1354 81.0833L88.2552 81.1874L88.724 81.453L89.2708 81.776L89.8958 82.1093L90.6146 82.4947L91.4531 82.9374L92.2813 83.3645L92.9479 83.7083L93.5104 84.0155L94 84.2968L94.4271 84.5364L94.6667 84.7239L95.0833 84.9635L95.5885 85.2447L96.151 85.5468L96.8958 85.9478L98.0573 86.578L99.3594 87.2708L100.63 87.9478L101.938 88.6405L103.349 89.3749L104.656 90.0676L105.604 90.5468L106.786 91.1874L107.271 91.5885L107.495 92.0676L107.615 92.9218L107.63 93.578L107.563 94.1093L107.417 94.5468L107.177 94.9114L106.938 95.1353L106.693 95.3333L106.469 95.4843L106.323 95.5208L106.135 95.5624L105.547 95.8437L104.87 96.203L104.109 96.6405L103.349 97.0676L102.63 97.427L102.016 97.7083L101.734 97.7603L101.563 97.776L101.401 97.828L101.307 97.9114L101.271 97.9999L101.229 98.1093L101.057 98.2708L100.828 98.4426L100.547 98.6041L100.203 98.776L99.7083 99.0155L99.1875 99.2812L98.7083 99.5364L98.2708 99.7603L97.8698 99.9999L97.5469 100.203L97.4271 100.297L97.2969 100.401L96.8021 100.698L96.1875 101.031L95.5104 101.391L94.7083 101.802L93.75 102.307L92.7865 102.828L91.974 103.271L91.0573 103.76L89.6563 104.521L88.0677 105.349L86.5365 106.161L85.0573 106.937L83.6563 107.682L82.4688 108.323L81.8958 108.641L81.4167 108.922L80.7344 109.307L80.0156 109.724L79.3229 110.094L78.5208 110.536L77.401 111.151L76.1615 111.802L75 112.417L73.8021 113.057L72.4688 113.776L71.1875 114.495L70.2031 115.057L69.0938 115.667L67.401 116.588L65.4948 117.604L63.6302 118.578L61.8802 119.495L60.3594 120.297L59.0677 120.99L58.8281 121.151L58.6146 121.297L58.151 121.578L57.6042 121.896L57 122.229L56.349 122.547L55.6563 122.828L55 123.016L54.5208 123.068L54.0833 123.031L53.5365 122.896L52.974 122.708L52.5104 122.484L51.9896 122.187L51.2969 121.802L50.5469 121.375L49.8542 120.99L49.0573 120.547L47.9635 119.963L46.7865 119.323L45.6823 118.734L44.5469 118.12L43.2708 117.443L42.026 116.76L41.0417 116.229L40.026 115.698L38.6823 114.974L37.2292 114.229L35.9219 113.562L34.7344 112.948L33.724 112.417L32.8438 111.948L32.7083 111.854L32.5885 111.75L32.1354 111.495L31.5729 111.203L30.9479 110.896L30.3073 110.562L29.6927 110.213L29.1875 109.896L28.9219 109.698L28.75 109.536L28.5469 109.417L28.3594 109.323L28.2135 109.297L28.0417 109.255L27.4844 108.974L26.8177 108.63L26.0833 108.213L25.0833 107.656L23.4948 106.786L21.6927 105.828L19.8958 104.896L18.1354 103.974L16.4167 103.083L14.9479 102.323L14.1354 101.88L13.5625 101.578L13.0677 101.281L12.6563 101.031L12.5365 100.922L12.401 100.818L11.8958 100.51L11.2969 100.177L10.6042 99.802L9.92188 99.4426L9.30729 99.0937L8.81771 98.802L8.68229 98.7083L8.54688 98.6041L7.68229 98.1353L6.65625 97.6145L5.48438 97.0155L4.27083 96.401L3.16146 95.8176L2.23958 95.3228L1.88021 95.0676L1.63021 94.7864L1.45313 94.401L1.34896 93.8697L1.32292 93.1874L1.34896 92.4166L1.46875 91.9218L1.70833 91.5624L2.10938 91.2291L2.60417 90.9374L3.72396 90.3072L5.06771 89.5885L6.51042 88.828L8.06771 87.9999L9.77604 87.0833L11.349 86.203L12.5365 85.5364L13.6146 84.9114L14.8802 84.2135L16.151 83.5468L17.1771 83.0155L18.0417 82.578L18.8021 82.177L19.4427 81.828L19.5729 81.7083L19.724 81.5885L20.6563 81.0833L21.75 80.4947L23.0156 79.8437L24.2813 79.177L25.3333 78.578L26.2292 78.0572L26.2813 77.9999L26.3073 77.9218L26.2813 77.8541L26.2396 77.7864L25.6667 77.427L24.974 76.9999L24.151 76.5468L23.1615 76.0312L22 75.401L20.8542 74.776L19.8958 74.2551L18.974 73.7499L17.9063 73.177L16.8802 72.6301L16.0573 72.2135L15.3594 71.8541L14.7604 71.5364L14.2552 71.2447L14.1354 71.1353L14.0156 71.0416L13.7083 70.8801L13.3333 70.6978L12.9375 70.5103L12.5365 70.3228L12.1875 70.1353L11.9375 69.9635L11.8958 69.9218L11.8802 69.8697L11.8698 69.8176L11.8438 69.776L11.5625 69.6145L11.2031 69.427L10.7604 69.2447L10.3333 69.0676L9.97396 68.8801L9.69271 68.7083L9.65625 68.6666L9.64063 68.6301L9.63021 68.578L9.60417 68.5364L9.33333 68.3645L9 68.177L8.60417 67.9895L8.1875 67.802L7.82813 67.6145L7.52083 67.4426L7.40104 67.3489L7.27083 67.2447L6.49479 66.802L5.57292 66.3072L4.52083 65.7603L3.44271 65.203L2.46875 64.6666L1.65625 64.2135L1.35938 64.0155L1.17708 63.776L1.06771 63.401L1.04167 62.8958L1.08333 62.2447L1.1875 61.6145L1.35938 61.0937L1.57292 60.7083L1.82813 60.4687L2.17708 60.2551L2.94792 59.8176L3.85417 59.3072L4.82813 58.7603L5.88021 58.1874L7.05729 57.5624L8.16146 56.9739L9 56.5364L9.69271 56.1874L10.2969 55.8541L10.8021 55.5624L10.9219 55.453L11.0677 55.3228L11.8438 54.8801L12.7604 54.3645L13.8177 53.802L15 53.1614L16.349 52.427L17.6302 51.7343L18.6146 51.177L19.6302 50.6145L20.9635 49.9114L22.375 49.1614L23.6667 48.4947L24.8021 47.9114L25.75 47.3749L26.5625 46.9114L26.6042 46.8697L26.6302 46.802L26.6146 46.7343L26.5625 46.6978L25.8958 46.2968L25.0938 45.8541L24.151 45.3645L23.1875 44.8541L22.3594 44.401L21.6667 43.9999L21.5469 43.8541L21.4688 43.7603L21.2969 43.6822L21.0677 43.6301L20.8281 43.6145L20.6042 43.5885L20.401 43.5364L20.2708 43.4426L20.2292 43.3905L20.2135 43.3332L20.1771 43.2135L20.0573 43.0832L19.8698 42.9635L19.6563 42.8697L19.3073 42.7239L18.4167 42.2551L17.3594 41.6978L16.2135 41.0572L15.0677 40.427L14.0156 39.8541L13.1198 39.3905L12.776 39.2447L12.5469 39.151L12.375 39.0312L12.2396 38.8957L12.2031 38.776V38.7082L12.1615 38.6666L12.0156 38.578L11.8177 38.5103L11.5625 38.4947L11.3229 38.4687L11.1198 38.401L10.974 38.3072L10.9375 38.2707L10.9219 38.203L10.8802 38.0832L10.7604 37.9478L10.5729 37.828L10.3594 37.7343L10.0677 37.6145L9.58854 37.3905L9.05729 37.0937L8.52083 36.7864L7.85417 36.4166L6.86979 35.8541L5.75 35.2447L4.68229 34.6562L3.65625 34.0937L2.70833 33.5364L1.90625 33.0572L1.5625 32.7864L1.33333 32.5364L1.16146 32.1614L1.04167 31.7343L1 31.3072L1.01563 30.9114L1.06771 30.4947L1.15104 30.151L1.23958 29.9374L1.41667 29.7499L1.75 29.4426L2.16146 29.1197L2.60417 28.802L3.22917 28.4166L4.28125 27.8176L5.52083 27.1614L6.76042 26.5103L7.94792 25.9114L9 25.3489L9.89583 24.8801L10.1198 24.7239L10.3333 24.5885L10.9219 24.2447L11.6146 23.8541L12.375 23.427L13.2813 22.9374L14.4844 22.2968L15.7344 21.6145L16.8542 21.0312L17.9479 20.4426L19.1354 19.8176L20.2292 19.2291L21.0156 18.7864L21.7083 18.4166L22.4271 17.9999L23.1094 17.6145L23.5729 17.3332L24.1198 17.0312L25.0573 16.5207L26.151 15.9374L27.2708 15.3489L28.3906 14.7499L29.5208 14.151L30.5104 13.6041L31.1094 13.2551L31.6667 12.9374L32.4167 12.5103L33.2396 12.0832L33.9896 11.6978L34.6823 11.3332L35.2813 11.0155L35.7865 10.7343L35.9219 10.6301L36.0417 10.5364L36.401 10.3072L36.8542 10.0572L37.3594 9.78637L37.9375 9.46867L38.6406 9.09367L39.3333 8.70825L39.9219 8.37492L40.5885 7.99992L41.6302 7.44262L42.7865 6.81762L43.9219 6.20304L45.0677 5.60408L46.2292 4.9895L47.2552 4.44262L47.9375 4.08325L48.4271 3.81762L48.8802 3.56242L49.2552 3.33325L49.375 3.24471L49.4948 3.15096L49.9635 2.89575L50.5104 2.60408L51.1354 2.28117L51.7604 1.96346L52.2969 1.65617L52.7344 1.37491L52.8438 1.24471L52.8802 1.18741L52.9479 1.15096L53.2813 1.08325L53.6927 1.03116L54.1771 0.999915Z" stroke="white" stroke-width="2" stroke-miterlimit="10" stroke-linecap="round" stroke-linejoin="round"/>
<path d="M54.401 6.16154L54.349 6.18758L53.8802 6.45321L53.349 6.7605L52.7344 7.10946L52.0677 7.48446L51.401 7.85425L50.8021 8.16154L50.4271 8.34904L50.0677 8.52091L49.5625 8.80216L49 9.1355L48.4688 9.45321L47.776 9.86987L46.6042 10.5209L45.2552 11.2709L43.8958 11.9897L42.4688 12.7345L40.974 13.5209L39.6042 14.2553L38.6406 14.7761L37.8802 15.1876L37.1875 15.5782L36.6146 15.9115L36.401 16.0574L36.1771 16.2136L35.4688 16.6147L34.6146 17.0834L33.6667 17.5886L32.6563 18.1355L31.6042 18.698L30.6406 19.2292L29.9896 19.5886L29.3229 19.9636L28.2813 20.5209L27.1198 21.1511L25.9896 21.7605L24.7604 22.4011L23.3073 23.1615L21.8802 23.9115L20.6927 24.5209L19.7083 25.0417L18.8438 25.5105L18.1094 25.9115L17.974 26.0313L17.8542 26.1355L17.4844 26.3647L17.0417 26.6042L16.5365 26.8542L15.8958 27.1772L15.026 27.6303L14.0938 28.1199L13.2135 28.5886L12.401 29.0313L11.6302 29.4532L10.974 29.8178L10.6563 30.0001L10.401 30.1615L10.0677 30.3647L9.70833 30.5626L9.39063 30.7501L8.96354 31.0313L8.90625 31.1095L8.92188 31.2032L9.11979 31.4167L10.026 31.948L10.6042 32.2553L11.1615 32.547L11.6667 32.8022L11.9635 32.922L12.1875 33.0157L12.3594 33.1511L12.4948 33.2813L12.5365 33.4011V33.4532L12.5729 33.5105L12.724 33.6042L12.9219 33.6667L13.1771 33.6824L13.4167 33.698L13.6302 33.7501L13.7604 33.8282L13.8021 33.8699L13.8177 33.922L13.8281 33.9897L13.8698 34.0417L14.0677 34.2136L14.349 34.3907L14.6823 34.5626L15.0417 34.724L15.4167 34.8438L15.7344 34.9376L15.9635 34.9636L16.1198 34.9897L16.2552 35.0417L16.349 35.1095L16.375 35.2032L16.4167 35.323L16.5885 35.4845L16.8177 35.6407L17.0938 35.8022L17.5208 36.0157L18.3594 36.4532L19.349 36.974L20.375 37.5209L21.4688 38.1095L22.6146 38.724L23.6563 39.297L24.3906 39.7084L25 40.0574L25.6823 40.4167L26.3229 40.7605L26.7865 41.0001L27.1615 41.2032L27.5104 41.3907L27.7865 41.5782L27.9063 41.6667L28.0156 41.7605L28.3073 41.9376L28.6406 42.1355L29.026 42.3334L29.401 42.5365L29.75 42.724L30.0417 42.8959L30.151 42.974L30.2552 43.0678L30.5208 43.2136L30.8542 43.3751L31.2031 43.547L31.776 43.724L32.2552 43.7084L32.8542 43.4949L33.9375 42.922L34.724 42.4845L35.6042 41.9897L36.4167 41.5209L37.0417 41.1615L37.6563 40.8178L38.4531 40.3907L39.3073 39.9376L40.0833 39.547L40.7604 39.2032L41.375 38.8803L41.8802 38.6042L42 38.4949L42.1198 38.4011L42.5885 38.1199L43.1354 37.8178L43.7604 37.4688L44.4844 37.0938L45.3229 36.6563L46.1354 36.2136L46.8177 35.8699L47.375 35.5782L47.8698 35.297L48.2969 35.0574L48.4167 34.9636L48.5365 34.8542L48.9896 34.6042L49.5469 34.3074L50.1771 34.0001L50.8021 33.6824L51.349 33.3907L51.8177 33.1355L51.9375 33.0417L52.0417 32.9636L52.2552 32.8178L52.5208 32.6407L52.8177 32.4845L53.1615 32.323L53.6042 32.2032L54.0833 32.1095L54.4948 32.0834L54.9635 32.1355L55.5625 32.323L56.1875 32.5886L56.7604 32.8959L57.4844 33.323L58.724 34.0157L60.1771 34.8022L61.6406 35.5886L63.1615 36.3751L64.7865 37.2292L66.2708 37.9897L67.3073 38.5365L68.1198 38.9636L68.8281 39.3334L69.4271 39.6667L69.5625 39.7761L69.6667 39.8542L69.9479 40.0313L70.2969 40.2136L70.6823 40.4167L71.0573 40.6042L71.401 40.8022L71.6823 40.9636L71.8021 41.0574L71.8958 41.1355L72.0938 41.2709L72.3333 41.4167L72.6042 41.5626L72.9635 41.7605L73.5885 42.1095L74.3333 42.5209L75.0833 42.9376L76.9219 43.948L79.401 42.6407L80.401 42.1199L81.349 41.6147L82.151 41.1772L82.5365 40.9636L82.7865 40.8022L83.026 40.6407L83.2292 40.4949L83.3333 40.4167L83.4531 40.3074L84.0573 39.974L84.7604 39.5886L85.5729 39.1615L86.5469 38.6563L87.8021 38.0157L89.0833 37.349L90.2135 36.7761L91.2135 36.2553L92.0833 35.7865L92.8021 35.3907L92.9479 35.2813L93.0677 35.1772L93.6667 34.8438L94.375 34.4428L95.1875 34.0157L96.0833 33.5365L97.0573 32.9897L97.9635 32.4688L98.6302 32.0574L100 31.2032L97.776 29.8803L96.8958 29.3751L96.1094 28.948L95.4427 28.6042L95.2396 28.5626L95.1094 28.5365L94.974 28.4845L94.8802 28.4167L94.8177 28.323L94.7083 28.1876L94.401 27.974L94.0156 27.724L93.5885 27.4845L92.9479 27.1355L91.8021 26.5365L90.4688 25.8282L89.0938 25.1095L87.7865 24.4167L86.6302 23.7865L85.6563 23.2553L85.4167 23.1095L85.1875 22.9636L84.4271 22.5365L83.5365 22.0417L82.5365 21.4949L81.4531 20.922L80.349 20.323L79.349 19.7865L78.6823 19.4428L78.1875 19.1876L77.7344 18.9376L77.3594 18.724L77.1198 18.5365L76.75 18.323L76.3073 18.0678L75.8021 17.7865L75.2135 17.4845L74.5208 17.1095L73.8281 16.724L73.2396 16.3907L72.5625 16.0001L71.5365 15.4428L70.375 14.8178L69.2292 14.2136L68.0417 13.5886L66.6927 12.8699L65.4167 12.1772L64.4271 11.6303L63.5885 11.1615L62.8021 10.7084L62.1198 10.3334L61.8021 10.1355L61.4688 9.948L60.776 9.57821L59.9479 9.11987L59.0677 8.65633L58.151 8.16154L57.1875 7.64071L56.3073 7.16154L55.6927 6.81779L55.2135 6.54696L54.8177 6.33341L54.4531 6.16154H54.401Z" stroke="white" stroke-width="2" stroke-miterlimit="10" stroke-linecap="round" stroke-linejoin="round"/>
<path d="M54.4531 37.5208L54.2031 37.5625L53.7604 37.724L53.2552 37.9479L52.7344 38.2031L52.1875 38.5104L51.5885 38.8542L51.0573 39.1875L50.6563 39.4531L50.2552 39.7083L49.7083 40.0312L49.1198 40.349L48.5729 40.6302L47.8802 40.974L46.724 41.5781L45.401 42.2708L44.0833 42.974L42.724 43.6979L41.2708 44.4687L39.9479 45.151L39.0156 45.6302L38.3229 46.0156L37.776 46.375L37.4167 46.6667L37.3906 46.724V46.776L37.4167 46.8177L37.6302 46.974L38.6823 47.5625L39.9375 48.2292L41.3594 48.974L42.9063 49.7865L44.5365 50.6562L45.9896 51.4271L46.974 51.974L47.776 52.4271L48.6146 52.8802L49.3594 53.2969L49.8542 53.5469L50.2292 53.7344L50.5729 53.9375L50.8698 54.0937L50.974 54.1875L51.0938 54.2812L51.5729 54.5625L52.151 54.8802L52.8021 55.2292L54.4844 56.1094L56.0938 55.151L56.9063 54.6823L58.0677 54.0417L59.3229 53.349L60.5104 52.7083L61.6823 52.0833L62.8802 51.4271L63.9635 50.8437L65.349 50.0417L66.3594 49.4948L67.4844 48.8802L68.5625 48.3229L69.5365 47.776L70.375 47.2812L71.0573 46.8437L71.1198 46.776L71.1615 46.6823V46.5885L71.0938 46.5104L70.4167 46.0573L69.5625 45.5365L68.5469 44.974L67.4271 44.3906L66.2813 43.776L65.2552 43.2135L64.5885 42.8281L63.9479 42.4687L63.0677 41.974L62.1198 41.4531L61.2292 40.974L60.2708 40.4531L59.1354 39.8437L57.974 39.2135L57.0156 38.6979L56.1771 38.2448L55.3906 37.8698L54.724 37.5885L54.4531 37.5208Z" stroke="white" stroke-width="2" stroke-miterlimit="10" stroke-linecap="round" stroke-linejoin="round"/>
<path d="M31.8438 49.7083L31.6927 49.724L31.4688 49.8281L31.2031 49.9635L30.9375 50.1354L30.5625 50.3646L29.8438 50.7865L28.974 51.2812L28.0677 51.776L26.9635 52.375L25.4271 53.1875L23.776 54.0677L22.2396 54.8698L20.7344 55.6667L19.1615 56.5208L17.75 57.3073L16.7865 57.8698L16.0573 58.2969L15.3594 58.6667L14.7865 58.9375L14.5625 58.9896L14.401 59.0156L14.2708 59.0677L14.151 59.1354L14.0833 59.2292L13.9635 59.3646L13.4427 59.6823L12.7865 60.0417L12.0417 60.4271L11.2969 60.8177L10.6406 61.1615L10.0938 61.4687L9.96354 61.5781L9.86979 61.6667L9.66667 61.776L9.42708 61.8958L9.16146 62L8.94792 62.1771L8.90625 62.2812L8.94792 62.3906L9.30729 62.6979L10.2969 63.3333L11.0156 63.776L11.75 64.1771L12.3906 64.4948L12.776 64.6302L13.0417 64.724L13.2813 64.8542L13.4427 64.974L13.4844 65.0312L13.4948 65.0937L13.5365 65.2135L13.6927 65.349L13.9375 65.4844L14.2135 65.5885L14.4948 65.6823L14.7604 65.8021L14.9896 65.9219L15.0938 66.0156L15.2292 66.1198L15.8698 66.4844L16.6302 66.8802L17.4948 67.3229L18.3594 67.7604L19.1198 68.1615L19.7604 68.4948L19.8958 68.6042L20.026 68.7083L20.6667 69.0573L21.4271 69.4427L22.2969 69.8802L23.1771 70.3229L23.9375 70.724L24.5729 71.0573L24.7083 71.1615L24.8177 71.2552L25.151 71.4531L25.5469 71.6823L25.9896 71.9375L26.5208 72.2135L27.2031 72.5885L27.9063 72.9896L28.5469 73.349L29.1771 73.6979L29.8438 74.0677L30.4844 74.4271L30.9479 74.6979L31.5729 74.974L32.0417 75.0156L32.6042 74.8437L33.8281 74.2448L34.5729 73.8437L35.2292 73.4948L35.7865 73.1875L35.9063 73.0937L36.0156 73L36.2135 72.8698L36.4531 72.7083L36.724 72.5469L37.0833 72.3333L37.776 71.9479L38.6042 71.5208L39.4427 71.0677L40.375 70.5781L41.4844 69.9896L42.5625 69.4167L43.4427 68.9375L44.3333 68.4427L45.4531 67.8437L46.6146 67.2292L47.6146 66.6979L48.5208 66.2135L49.4271 65.7344L50.2031 65.3073L50.6563 65.0573L50.974 64.8698L51.2708 64.6823L51.5104 64.5208L51.6146 64.4427L51.724 64.349L51.9896 64.1875L52.2969 64.0156L52.6406 63.8281L53.0573 63.6562L53.5469 63.5208L54.0573 63.4271L54.4844 63.401L54.9479 63.4687L55.5729 63.6406L56.2292 63.8958L56.8177 64.1771L57.349 64.4844L57.8177 64.776L58.1875 65.0312L58.2969 65.1615L58.375 65.2552L58.5365 65.3333L58.75 65.3906L58.9896 65.401L59.2135 65.4167L59.4271 65.4844L59.5885 65.5625L59.6823 65.6667L59.8021 65.8177L60.7865 66.401L61.9479 67.0677L63.3073 67.8021L64.8438 68.6146L66.5469 69.5104L68.1615 70.349L69.3906 70.974L70.3906 71.4948L71.2552 71.9479L71.9896 72.349L72.1198 72.4531L72.2292 72.5365L72.5104 72.7344L72.8542 72.9635L73.2396 73.1875L73.6563 73.4271L74.0833 73.6562L74.4844 73.8437L74.7604 73.9479L74.974 74.0312L75.1615 74.151L75.2813 74.2708L75.3229 74.3646L75.3333 74.4271L75.375 74.4687L75.6146 74.6042L75.9219 74.7083L76.3073 74.8021L76.9063 74.8437L77.5885 74.6979L78.4688 74.3333L79.75 73.6823L80.8021 73.1198L81.9063 72.5104L82.9375 71.9635L83.6563 71.5625L84.3333 71.1771L85.1875 70.7083L86.0833 70.2135L86.8542 69.7865L87.6563 69.349L88.6146 68.8177L89.5729 68.2812L90.375 67.8281L91.1771 67.3906L92.0938 66.8958L93 66.4167L93.75 66.0417L94.375 65.724L94.9219 65.4271L95.375 65.1771L95.5104 65.0833L95.6302 64.9896L96.0417 64.75L96.5469 64.4531L97.1094 64.151L97.7083 63.8281L98.3333 63.5104L98.8958 63.2135L99.2708 63.0312L99.5365 62.8698L99.75 62.6979L99.8698 62.5104L99.8958 62.4427L99.8802 62.375L99.7604 62.2031L99.0677 61.75L98.2292 61.2292L97.2396 60.6823L96.1875 60.1094L95.1198 59.5365L94.1771 59.0417L93.5885 58.75L93.151 58.5208L92.75 58.3073L92.4167 58.1198L92.3073 58.0312L92.2031 57.9479L91.9479 57.7865L91.6563 57.6042L91.3333 57.4167L90.8542 57.1354L89.7865 56.5781L88.5208 55.8958L87.1771 55.2031L85.7865 54.4687L84.4271 53.724L83.2396 53.0677L82.5365 52.6406L81.8958 52.2552L81.026 51.75L80.0833 51.2135L79.2031 50.75L78.1875 50.2448L77.4271 49.9479L76.8281 49.8281L76.3229 49.8698L75.9896 49.9635L75.6823 50.0677L75.4427 50.1875L75.3229 50.2812L75.1875 50.4167L74.6927 50.7083L74.0833 51.0573L73.401 51.4271L72.5729 51.8542L71.5469 52.401L70.4844 52.9635L69.5625 53.4687L68.6042 53.974L67.4271 54.5885L66.2396 55.2135L65.2292 55.75L64.349 56.2135L63.5208 56.6823L62.8542 57.0833L62.5885 57.2969L62.375 57.4531L62.0938 57.6302L61.776 57.776L61.4844 57.8958L61.0938 58.0573L60.3906 58.4167L59.5885 58.8698L58.7604 59.349L57.9635 59.8281L57.2292 60.2292L56.6146 60.5469L56.4167 60.5885L56.2969 60.6146L56.1875 60.6823L56.1198 60.776L56.0938 60.8802L56.0833 60.9479L56.0417 61L55.8542 61.1198L55.5729 61.2448L55.2396 61.3229L54.8542 61.3646L54.349 61.3333L53.8438 61.2708L53.401 61.151L53.0156 61L52.6563 60.8542L52.375 60.7083L52.2552 60.6302L52.1198 60.5104L51.5729 60.1875L50.9219 59.8281L50.1771 59.4271L49.349 59L48.4844 58.5469L47.6927 58.1198L47.1354 57.8281L46.6823 57.5885L46.2969 57.3646L45.9635 57.1615L45.8438 57.0677L45.7344 56.974L45.401 56.776L45 56.5469L44.5625 56.3073L43.9375 55.974L42.7865 55.375L41.4531 54.6667L40.0833 53.9479L38.7604 53.2552L37.6042 52.6302L36.6302 52.0937L36.3906 51.9219L36.1615 51.776L35.5729 51.4531L34.8542 51.0833L34.0833 50.6823L33.3073 50.3073L32.6146 49.9896L32.0156 49.7344L31.8438 49.7083Z" stroke="white" stroke-width="2" stroke-miterlimit="10" stroke-linecap="round" stroke-linejoin="round"/>
<path d="M54.2292 68.6301L54.0938 68.6666L53.8021 68.8176L53.4427 68.9999L53.0573 69.2291L52.6042 69.4947L52 69.8437L51.375 70.203L50.8177 70.5364L50.1615 70.8958L49.2552 71.4166L48.2396 71.9739L47.2969 72.4947L46.1615 73.1093L44.5469 73.9478L42.7865 74.8541L41.1198 75.7083L39.6146 76.4843L38.349 77.1614L37.2552 77.7603L37.2135 77.8176L37.2031 77.8697L37.2135 77.9374L37.2552 77.9739L37.9219 78.3749L38.7344 78.828L39.6823 79.3228L40.6406 79.8176L41.4844 80.2551L42.1875 80.6405L42.3229 80.7603L42.4531 80.8697L42.9063 81.1197L43.4531 81.427L44.0833 81.7499L44.7083 82.0676L45.2396 82.3749L45.6823 82.6562L45.7865 82.776L45.8802 82.8697L46.0573 82.9478L46.2708 82.9999L46.5104 83.0155L46.75 83.0416L46.9479 83.0937L47.0833 83.177L47.1198 83.2135L47.1354 83.2708L47.151 83.3333L47.1875 83.3905L47.4271 83.5624L47.776 83.7603L48.1771 83.9635L48.6823 84.203L49.3906 84.578L50.1354 84.9999L50.8281 85.427L51.5365 85.8541L52.3073 86.2812L53.0417 86.6405L53.5885 86.8697L54.2969 87.0676H54.8177L55.401 86.8801L56.4531 86.3489L57.1198 85.9895L57.724 85.6405L58.2135 85.3333L58.349 85.2291L58.4688 85.1093L58.9219 84.8697L59.4844 84.578L60.1094 84.2812L60.776 83.9635L61.4688 83.6041L62.0938 83.2708L62.5104 82.9999L62.974 82.7083L63.8281 82.2135L64.8281 81.6562L65.8698 81.0937L66.9635 80.5103L68.1198 79.8958L69.2031 79.3333L69.9635 78.9478L70.5365 78.6405L71.026 78.3333L71.4167 78.0676L71.4531 78.0155L71.4844 77.9478L71.4531 77.8697L71.4167 77.8176L70.9896 77.5208L70.4427 77.1874L69.8021 76.8437L69.1198 76.5103L68.4948 76.2135L67.9479 76.0155L67.7083 75.9635L67.5625 75.9478L67.4271 75.8958L67.349 75.828L67.3073 75.7343L67.2969 75.6666L67.2552 75.6145L67 75.427L66.6667 75.2291L66.2708 75.0416L65.8542 74.8437L65.4948 74.6562L65.1875 74.4947L65.0677 74.401L64.9635 74.2968L64.75 74.151L64.4948 73.9895L64.2135 73.828L63.8021 73.6041L62.9896 73.1614L62.0156 72.6405L61.0156 72.0937L59.8958 71.5103L58.6406 70.8437L57.4271 70.1874L56.4688 69.6822L55.6823 69.2708L54.974 68.9218L54.375 68.6562L54.2292 68.6301Z" stroke="white" stroke-width="2" stroke-miterlimit="10" stroke-linecap="round" stroke-linejoin="round"/>
<path d="M31.974 80.7865L31.9375 80.8021L31.6042 80.974L31.2292 81.1615L30.7865 81.3906L30.2292 81.6823L29.4271 82.1094L28.5625 82.5781L27.75 83.0156L26.75 83.5469L25.2135 84.3646L23.4948 85.2708L21.8177 86.1354L20.2135 86.9635L18.7083 87.75L17.4427 88.4167L16.8542 88.7344L16.4688 88.9479L16.1198 89.1615L15.8438 89.3333L15.7344 89.4271L15.6302 89.5104L15.4167 89.6562L15.151 89.8281L14.8542 89.9896L14.5469 90.151L14.2031 90.2708L13.8958 90.3646L13.6563 90.3906L13.4688 90.401L13.3073 90.4531L13.2031 90.5365L13.1771 90.6302L13.151 90.6979L13.1094 90.75L12.8698 90.9375L12.5208 91.1354L12.1198 91.3333L11.6563 91.5469L11.0833 91.8437L10.5208 92.1615L10.0573 92.4427L9.65625 92.724L9.32292 92.9896L9.05729 93.2135L9.01562 93.3333L9.02604 93.3906L9.06771 93.4427L9.33333 93.6042L9.69271 93.7865L10.1198 93.9635L10.5625 94.1198L10.9219 94.2969L11.1875 94.4531L11.2292 94.4948L11.2396 94.5625L11.2708 94.6146L11.3073 94.6667L11.974 95.0677L12.776 95.5104L14.6927 96.5208L15.5208 96.974L16.2031 97.3906L16.3229 97.5208L16.401 97.6146L16.5625 97.6823L16.7604 97.7344L16.974 97.7604L17.2135 97.776L17.4531 97.8437L17.6667 97.9219L17.8281 98.0312L18.0677 98.2031L18.9896 98.724L20.0938 99.3333L21.3333 100.016L22.6563 100.708L23.974 101.401L25.1198 102.016L25.8281 102.375L26.3229 102.641L26.776 102.896L27.151 103.109L27.3906 103.297L27.9219 103.604L28.5625 103.948L29.2813 104.323L30.0677 104.734L30.8802 105.161L31.6406 105.562L32.1615 105.828L32.5885 106.068L33 106.307L33.3594 106.547L33.5729 106.708L33.7604 106.844L33.9896 106.948L34.2292 107.031L34.4271 107.057L34.6146 107.068L34.8021 107.12L34.9375 107.203L35 107.297L35.1198 107.417L35.6406 107.75L36.2969 108.12L37.0417 108.521L37.9479 109L39.151 109.63L40.401 110.297L41.5208 110.88L42.6146 111.469L43.7604 112.094L44.8021 112.667L45.5208 113.068L46.2135 113.453L47.1094 113.937L48.0573 114.427L48.8958 114.87L49.6406 115.255L50.2969 115.63L50.8438 115.937L50.974 116.057L51.1094 116.177L51.5729 116.453L52.1354 116.786L52.776 117.151L54.4167 118.031L56.9479 116.667L57.9635 116.094L58.9635 115.547L59.8021 115.057L60.2708 114.76L60.6823 114.51L61.2969 114.161L62 113.786L62.6667 113.443L63.2969 113.135L63.8438 112.844L64.3073 112.589L64.4271 112.495L64.5625 112.401L65.2396 112.031L66.0573 111.604L66.9896 111.12L68.0938 110.562L69.4427 109.87L70.8021 109.161L71.9635 108.536L73.0677 107.948L74.2813 107.297L75.4271 106.682L76.2813 106.229L76.974 105.854L77.5729 105.51L78.0833 105.203L78.2031 105.094L78.349 104.99L79.0677 104.589L79.9375 104.135L80.9375 103.63L82.0573 103.057L83.349 102.375L84.5885 101.698L85.5729 101.135L86.6146 100.547L88.0833 99.7344L89.6823 98.8802L91.1771 98.0833L92.6563 97.3073L94.1875 96.5104L95.5469 95.8021L96.4688 95.3229L97.151 94.9479L97.7604 94.6146L98.2552 94.3229L98.3906 94.2135L98.4844 94.1198L98.6667 94.0156L98.8802 93.9115L99.1094 93.8177L99.3229 93.724L99.5104 93.5885L99.6302 93.4427L99.6667 93.3073L99.6146 93.1615L99.4167 92.9479L99.1198 92.7344L98.7865 92.5365L98.349 92.3073L97.75 91.9896L97.0833 91.6406L96.4688 91.3073L95.9063 91L95.401 90.724L94.9896 90.4844L94.8698 90.3906L94.7344 90.2969L94.2813 90.0417L93.724 89.75L93.1094 89.4271L92.4844 89.1094L91.9219 88.8177L91.4688 88.5625L91.3333 88.4687L91.2135 88.375L90.8021 88.1354L90.3073 87.8542L89.7344 87.5625L88.9896 87.1615L87.8698 86.5781L86.6302 85.9115L85.4167 85.2708L84.2031 84.6146L82.9479 83.9479L81.8281 83.3646L81.0938 82.974L80.5208 82.6667L80.026 82.3906L79.6042 82.151L79.4844 82.0573L79.375 81.974L79.0938 81.8177L78.75 81.6302L78.3594 81.4271L77.9896 81.2552L77.6302 81.0833L77.3229 80.9375L77.2031 80.8802L77.1198 80.8542L77.0573 80.8802L76.3229 81.2031L75.4531 81.6042L74.4844 82.0937L73.4844 82.6146L72.6042 83.0937L71.8698 83.5104L71.6406 83.6667L71.3906 83.8281L70.3229 84.401L69.0677 85.0677L67.6302 85.8021L66.2031 86.5208L64.9896 87.1615L63.9219 87.724L63.7865 87.8281L63.6667 87.9219L63.2969 88.1354L62.8542 88.3906L62.349 88.6562L61.75 88.9635L60.9896 89.375L60.2135 89.8021L59.5469 90.1771L58.8542 90.5625L58.0573 91.0156L57.2552 91.4687L56.6042 91.8281L55.9896 92.1354L55.3073 92.401L54.6823 92.5781L54.2135 92.6302L53.8281 92.6146L53.4844 92.5469L53.2031 92.4531L53.0833 92.349L52.9375 92.2031L52.5469 91.9375L52.0677 91.6302L51.5365 91.3333L50.9479 91.0156L50.2969 90.6823L49.6823 90.3646L49.2135 90.1354L48.7083 89.8698L47.9219 89.4427L46.1615 88.4531L45.0938 87.8542L43.4688 86.974L41.6667 86.0156L39.9219 85.1094L38.2969 84.2708L36.8802 83.5104L35.6823 82.8698L35.4427 82.7083L35.2292 82.5781L34.7604 82.2969L34.1875 81.9635L32.9896 81.2969L32.4844 81.0312L32.026 80.8021L31.974 80.7865Z" stroke="white" stroke-width="2" stroke-miterlimit="10" stroke-linecap="round" stroke-linejoin="round"/>
</svg>
